<svg width="186" height="26" viewBox="0 0 186 26" fill="none" xmlns="http://www.w3.org/2000/svg">
<path d="M145.876 7.58011C150.954 6.97999 155.563 10.5807 156.184 15.6329C156.805 20.6852 153.205 25.2861 148.131 25.922C143.032 26.5614 138.381 22.9551 137.757 17.8776C137.133 12.7994 140.773 8.18374 145.876 7.58011ZM147.78 21.6433C150.969 21.1042 151.215 17.3203 150.677 14.7907C150.124 12.1951 148.553 11.7627 146.224 11.8694C143.107 12.5144 142.801 16.0506 143.246 18.6286C143.42 19.6387 144.024 20.6859 144.903 21.2242C145.691 21.7177 146.848 21.6678 147.78 21.6433Z" fill="white"/>
<path d="M166.871 7.59065C171.979 6.9772 176.614 10.6165 177.203 15.7031C177.793 20.7905 174.112 25.3844 168.998 25.9438C163.922 26.4997 159.349 22.8695 158.764 17.8201C158.179 12.7713 161.802 8.1999 166.871 7.59065ZM169.068 21.6012C169.994 21.3239 170.824 20.7743 171.252 19.8605C172.236 17.7604 172.286 13.4381 169.926 12.1867C169.154 11.7775 167.971 11.7999 167.123 11.8799C164.864 12.4857 164.223 14.293 164.109 16.4303C164.022 18.0791 164.34 20.2704 165.89 21.1969C166.81 21.7443 168.036 21.6384 169.068 21.6012Z" fill="white"/>
<path d="M118.017 0.0424604C119.708 0.00455811 121.576 0.0487792 123.282 0.0529905C123.244 0.601872 123.231 1.24761 123.24 1.7972C123.289 4.8357 123.144 7.94088 123.26 10.9717C124.582 9.01267 126.048 7.85244 128.521 7.84893C129.962 7.80191 131.638 8.1346 132.693 9.2071C134.858 11.4075 134.439 15.2644 134.436 18.1148L134.432 25.2854C132.726 25.2334 130.874 25.2524 129.168 25.2777L129.158 19.9903L129.168 17.1624C129.176 15.0068 129.441 11.7936 126.374 11.8202C122.711 11.8518 123.235 16.5763 123.234 19.0027L123.23 25.258C122.431 25.2587 118.647 25.3317 118.093 25.2264C117.856 24.5982 118.003 11.736 118.004 10.1048L118.003 3.63476C118.002 2.54472 117.958 1.11285 118.017 0.0424604Z" fill="white"/>
<path d="M89.2571 1.05604C89.6466 0.994275 90.343 1.01533 90.7692 1.00129C93.0391 0.927593 94.7525 1.23854 96.9243 1.82181C96.9637 3.46284 96.9682 5.10387 96.9379 6.7449C95.059 5.81348 93.5256 5.10176 91.3288 5.18669C90.2876 5.2267 88.4217 5.40849 87.7696 6.30411C85.4552 9.48298 91.4031 10.9766 93.3797 12.021C95.8858 13.2788 97.8417 15.0588 98.0184 17.9899C98.3724 23.8641 93.8264 25.5788 88.7045 25.7108C86.929 25.7789 83.4061 25.4026 81.906 24.4544C81.5649 24.2389 81.716 19.9405 81.7222 19.2604C82.2994 19.5987 82.8508 19.9826 83.4372 20.3195C85.2224 21.3457 87.275 21.6777 89.3188 21.5008C90.8413 21.4271 92.7276 20.4066 92.3344 18.6132C91.8963 16.6142 88.3934 15.548 86.7739 14.8181C86.0065 14.4784 85.2714 14.0699 84.5778 13.5982C81.4739 11.4581 80.6268 7.55839 82.7334 4.29599C84.1639 2.08081 86.7771 1.47648 89.2571 1.05604Z" fill="white"/>
<path d="M69.068 8.12185C72.2045 7.93325 75.9157 8.42583 77.3472 11.6559C77.5975 12.2142 77.7576 12.8084 77.8211 13.4164C78.0213 15.4863 77.8309 17.971 77.8859 20.0886C77.9085 20.968 78.0051 24.7635 77.7809 25.3325C77.4078 25.6635 74.9179 25.545 74.2523 25.5394C73.9681 24.8812 73.9737 24.3916 73.9455 23.6863C71.4112 25.9874 67.7825 26.9718 64.9322 24.5977C63.4105 23.1632 62.8485 21.3174 63.2413 19.2648C63.5156 17.8332 64.3575 16.5719 65.5767 15.7653C67.8149 14.2763 71.0896 14.5476 73.5915 15.0319C73.5831 14.5179 73.6155 13.9323 73.4428 13.4515C72.2433 10.1126 66.9088 11.6798 64.5789 12.4555C64.5811 11.7303 64.4478 9.85643 64.6819 9.31078C65.3419 8.62503 68.1139 8.23274 69.068 8.12185ZM71.0234 22.4524C74.1839 21.3363 73.3934 20.9755 73.5915 18.1871C72.2292 18.0668 71.4866 17.8274 70.0425 17.9456C69.295 18.0207 68.3558 18.2013 67.9235 18.8456C66.4709 21.0104 68.2006 22.9449 70.5396 22.5515C70.7018 22.523 70.8633 22.49 71.0234 22.4524Z" fill="white"/>
<path d="M36.7501 8.12032C39.2498 7.91431 42.2664 8.23016 44.1055 10.1223C44.7648 10.8006 45.2295 11.642 45.4523 12.5592C45.7534 13.7796 45.6822 15.3025 45.678 16.576L45.6688 20.5382C45.6702 21.9671 45.6942 23.3786 45.7499 24.8073C45.7605 25.0906 45.7302 25.2521 45.5433 25.4249C44.8374 25.6519 42.7861 25.5572 41.9985 25.4838C41.8504 24.8159 41.794 24.3638 41.7157 23.6857C39.0382 26.1791 35.7669 26.8368 32.7078 24.5698C32.5758 24.4486 32.4472 24.3237 32.3221 24.1954C30.3608 22.1567 30.5427 18.2512 32.5798 16.3937C34.9544 14.2146 38.264 14.553 41.2087 14.955C41.6741 15.0186 41.3857 13.972 41.3427 13.8028C40.3837 10.0159 34.9668 11.5944 32.3864 12.4747C32.3678 11.8704 32.2108 9.5387 32.523 9.26307C33.2349 8.63459 35.8552 8.23297 36.7501 8.12032ZM38.7124 22.4647C41.7926 21.4567 41.409 21.0067 41.4259 18.2147C40.096 18.0137 39.3316 17.8538 37.977 17.947C37.1039 18.0075 36.3208 18.1361 35.7171 18.8479C34.9354 19.7696 35.0444 21.3462 36.0344 22.0805C36.8137 22.6664 37.8 22.6627 38.7124 22.4647Z" fill="white"/>
<path d="M6.27804 1.98217C9.16297 1.95775 12.0481 1.95368 14.9331 1.97003C21.0449 1.98245 27.1861 1.3285 27.2141 9.38442C27.2193 10.8599 27.3276 12.4492 27.2598 13.941C27.0487 18.5853 28.2472 23.1495 22.9156 25.113C21.8658 25.545 19.7568 25.6348 18.6065 25.659C18.5579 24.257 18.5849 22.833 18.5791 21.4279C19.4695 21.0948 20.2554 21.23 21.1356 20.4661C21.9354 19.7852 22.1192 18.2813 22.0893 17.2487C22.0052 14.355 22.3086 11.2522 21.8697 8.38878C21.6974 7.26484 20.6659 6.57825 19.5864 6.45162C17.9454 6.25916 16.2222 6.31286 14.5547 6.31398L6.16408 6.33694C6.11352 5.63118 6.07749 2.54495 6.27804 1.98217Z" fill="white"/>
<path d="M108.951 7.87494C110.109 7.70297 113.36 7.863 114.281 8.50594C114.652 8.76424 114.512 12.3088 114.546 12.996C112.639 11.8048 110.371 11.3261 108.25 12.3811C105.78 13.6108 105.256 17.3449 106.529 19.6043C107.057 20.542 107.947 21.225 108.992 21.4952C110.876 21.9837 112.906 21.4896 114.568 20.5525C114.581 21.4545 114.51 22.4013 114.52 23.3398C114.526 24.6298 114.539 24.9296 113.196 25.2784C107.362 26.7917 101.09 24.6495 100.568 17.9226C100.153 12.5727 103.381 8.23501 108.951 7.87494Z" fill="white"/>
<path d="M51.3375 3.75123C52.7217 3.73621 54.1059 3.73424 55.4901 3.7454C55.5388 4.96375 55.5917 7.37097 55.4817 8.53716C56.2989 8.52874 59.7048 8.4316 60.3183 8.59795C60.5743 8.9371 60.5052 11.4008 60.3338 11.8234C59.9693 12.0209 56.0373 11.9958 55.5134 11.9351C55.5635 12.6101 55.5134 13.371 55.5085 14.0573L55.5063 17.4632C55.4676 22.6356 55.397 22.7145 60.6772 22.0938C60.709 22.6105 60.6956 23.3019 60.7005 23.8324C60.7033 24.1817 60.728 25.2541 60.5327 25.4153C59.7091 25.8904 57.7861 25.9573 56.8877 25.9428C52.3169 25.7499 51.0871 23.5169 51.2564 19.2533C51.3473 16.9713 51.1992 14.2514 51.2585 11.9423C50.2698 12.0252 49.2333 11.8874 48.1953 11.9866C48.1149 11.25 48.141 9.32273 48.1925 8.5665C49.1649 8.50109 50.3086 8.51681 51.2966 8.50916C51.2528 7.77098 51.1894 4.27611 51.3375 3.75123Z" fill="white"/>
<path d="M180.835 0.0193346C181.773 0.0284592 185.17 -0.0571712 185.813 0.0726792C186.066 0.660867 185.908 12.8135 185.919 14.2987L185.97 20.8579C185.983 22.2027 186.04 23.8297 185.951 25.1528C185.718 25.3423 181.294 25.2679 180.665 25.2686L180.655 9.10114L180.653 3.5246C180.653 2.49352 180.648 1.44277 180.686 0.411691C180.695 0.156903 180.695 0.214461 180.835 0.0193346Z" fill="white"/>
<path d="M0.414762 2.01691C1.68905 1.98041 2.96418 1.97809 4.23861 2.00989C4.20695 6.64611 4.21414 11.2825 4.26019 15.9186C4.2721 19.1252 4.18333 22.3622 4.23092 25.5708C3.3597 25.748 1.29219 25.5424 0.0867233 25.7093C0.00280977 23.2411 -0.073276 2.53758 0.127834 2.13848C0.177901 2.03909 0.314771 2.0426 0.414762 2.01691Z" fill="#F0861D"/>
<path d="M6.22066 12.6962C7.49057 12.7742 9.19042 12.7313 10.5014 12.7419C10.3244 16.0128 10.6667 22.0825 10.4005 25.5469C10.3944 25.6275 10.2635 25.6279 10.1518 25.6531C9.0656 25.7282 7.34524 25.6715 6.20161 25.6882C6.05135 21.3587 6.05776 17.0252 6.22066 12.6962Z" fill="#86AC3C"/>
<path d="M12.893 21.3699C13.8369 21.44 15.7013 21.4118 16.6739 21.3775C16.6884 21.5212 16.7006 21.6652 16.7106 21.8093C16.7491 22.3938 16.878 25.196 16.575 25.5379L16.3224 25.5373C15.3666 25.4962 13.3293 25.5102 12.4141 25.5831C12.3555 24.8234 12.3523 22.2483 12.4322 21.5588C12.5874 21.3704 12.5767 21.4285 12.893 21.3699Z" fill="#AB5096"/>
</svg>
