<svg width="149" height="32" viewBox="0 0 149 32" fill="none" xmlns="http://www.w3.org/2000/svg">
<path d="M13.5085 24.7505C12.0759 26.1661 10.1072 27.0404 7.93504 27.0404C3.55233 27.0404 0 23.4843 0 19.0985C0 16.9246 0.873546 14.9548 2.28805 13.5206C3.72634 14.979 5.72452 15.8837 7.93548 15.8837C9.79534 15.8837 11.505 15.2444 12.8574 14.1727C11.7865 15.5262 11.1468 17.2372 11.1468 19.0985C11.1468 21.3099 12.0503 23.3111 13.5089 24.7505H13.5085Z" fill="url(#paint0_linear_150_198)"/>
<path d="M11.1464 7.94186C11.1464 9.80322 11.786 11.5142 12.8569 12.8686C11.5045 11.7968 9.7949 11.1567 7.93504 11.1567C5.72408 11.1567 3.72589 12.0609 2.28761 13.5206C0.873546 12.0865 0 10.1158 0 7.94186C0 3.55607 3.55233 0 7.93548 0C10.1077 0 12.0759 0.874248 13.5089 2.28989C12.0503 3.72933 11.1468 5.73001 11.1468 7.94186H11.1464Z" fill="url(#paint1_linear_150_198)"/>
<path d="M27.0173 7.94186C27.0173 10.1158 26.1437 12.0869 24.7292 13.5206C23.2909 12.0609 21.2927 11.1567 19.0818 11.1567C17.2219 11.1567 15.5123 11.7968 14.1599 12.8686C15.2312 11.5142 15.8708 9.80322 15.8708 7.94186C15.8708 5.73045 14.9673 3.72933 13.5088 2.28989C14.9414 0.874248 16.9096 0 19.0818 0C23.4649 0 27.0173 3.55607 27.0173 7.94186Z" fill="url(#paint2_linear_150_198)"/>
<path d="M19.0813 15.8846C17.2215 15.8846 15.5131 15.2453 14.1594 14.1731C15.2308 15.5262 15.8717 17.2376 15.8717 19.099C15.8717 21.3109 14.9669 23.3115 13.5079 24.751C12.0507 23.3115 11.1459 21.3109 11.1459 19.099C11.1459 17.2376 11.7868 15.5257 12.8581 14.1731C11.5044 15.2453 9.79611 15.8846 7.93625 15.8846C5.72397 15.8846 3.72711 14.9791 2.28882 13.5211C3.72711 12.0605 5.72397 11.1571 7.93625 11.1571C9.79611 11.1571 11.5044 11.7964 12.8581 12.8686C11.7868 11.5138 11.1459 9.8041 11.1459 7.94275C11.1459 5.73089 12.0507 3.73022 13.5079 2.29077C14.9673 3.73022 15.8717 5.73089 15.8717 7.94275C15.8717 9.8041 15.2308 11.5138 14.1594 12.8686C15.5131 11.7964 17.2215 11.1571 19.0813 11.1571C21.2936 11.1571 23.2905 12.0605 24.7288 13.5211C23.2905 14.9795 21.2936 15.8846 19.0813 15.8846Z" fill="#06F88A"/>
<path d="M27.0174 19.0985C27.0174 23.4839 23.4651 27.0404 19.082 27.0404C16.9098 27.0404 14.9415 26.1661 13.5085 24.7505C14.9671 23.3111 15.8706 21.3104 15.8706 19.0985C15.8706 17.2372 15.231 15.5262 14.1596 14.1727C15.512 15.2444 17.2217 15.8837 19.0815 15.8837C21.2925 15.8837 23.2907 14.9795 24.729 13.5206C26.1435 14.9543 27.017 16.9246 27.017 19.0985H27.0174Z" fill="url(#paint3_linear_150_198)"/>
<path d="M58.1535 2.34827C58.9108 2.34827 59.5592 2.60838 60.1006 3.12773C60.6411 3.64707 60.912 4.27532 60.912 5.01113C60.912 5.74695 60.6468 6.37519 60.1169 6.89453C59.5865 7.41432 58.9434 7.674 58.1865 7.674C57.4297 7.674 56.7535 7.41388 56.2236 6.89453C55.6932 6.37519 55.4285 5.73681 55.4285 4.97895C55.4285 4.26429 55.6985 3.64752 56.2399 3.12817C56.7804 2.60838 57.4187 2.34871 58.1539 2.34871" fill="white"/>
<path d="M89.5382 2.34705C90.295 2.34705 90.9443 2.60672 91.4853 3.12651C92.0258 3.64629 92.2967 4.2741 92.2967 5.01035C92.2967 5.74661 92.0315 6.37441 91.5016 6.8942C90.9712 7.41398 90.328 7.67366 89.5708 7.67366C88.8135 7.67366 88.1373 7.41354 87.6074 6.8942C87.077 6.37441 86.8123 5.73603 86.8123 4.97817C86.8123 4.26351 87.0827 3.64674 87.6237 3.12695C88.1642 2.60716 88.8025 2.34749 89.5386 2.34749" fill="url(#paint4_linear_150_198)"/>
<path d="M50.2409 5.64495C48.0748 3.68484 45.1868 2.70654 41.5768 2.70654H36.2527V7.15317H41.6732C43.8578 7.15317 45.5723 7.72366 46.8163 8.85758C48.0603 9.99503 48.6823 11.5592 48.6823 13.5524C48.6823 15.5456 48.0603 17.0768 46.8163 18.2142C45.5723 19.3481 43.8578 19.919 41.6732 19.919H36.2527V24.3657H41.5768C45.1868 24.3657 48.0748 23.3839 50.2409 21.4123C52.4034 19.4407 53.4844 16.8096 53.4844 13.5194C53.4844 10.2291 52.4034 7.60507 50.2409 5.64495Z" fill="white"/>
<path d="M74.0268 12.0262V16.4098H79.8028C79.0883 19.0965 77.3368 20.4376 74.5448 20.4376C72.6418 20.4376 71.0313 19.7706 69.7093 18.44C68.3912 17.1099 67.7322 15.4792 67.7322 13.5525C67.7322 11.6259 68.3802 9.93563 69.6798 8.61654C70.9758 7.29349 72.5863 6.63395 74.5118 6.63395C75.5523 6.63395 76.4703 6.8341 77.2703 7.23441C78.0738 7.63428 78.9919 8.34585 80.0288 9.36118L83.4389 6.17808C81.9024 4.72938 80.4509 3.69554 79.0883 3.07655C77.7254 2.4611 76.2113 2.15381 74.5448 2.15381C71.3238 2.15381 68.5763 3.26172 66.3028 5.48151C64.0332 7.70085 62.8962 10.3915 62.8962 13.5525C62.8962 16.7136 64.0332 19.4003 66.3028 21.6086C68.5763 23.8134 71.3343 24.9178 74.5783 24.9178C77.8223 24.9178 80.2284 23.9285 82.0574 21.9494C83.8864 19.9668 84.8014 17.4062 84.8014 14.2676V12.0258H74.0268V12.0262Z" fill="white"/>
<path d="M91.8739 9.97998H87.2678V24.3652H91.8739V9.97998Z" fill="white"/>
<path d="M60.4902 9.97876H55.8828V24.3644H60.4902V9.97876Z" fill="white"/>
<path d="M41.0548 12.3593V14.7105C41.0548 15.9952 40.0231 17.0414 38.7425 17.0612C38.7288 17.063 38.7165 17.063 38.7028 17.063H36.2527V10.0068H38.7028C38.7165 10.0068 38.7288 10.0068 38.7425 10.0082C40.0231 10.028 41.0548 11.0742 41.0548 12.3593Z" fill="url(#paint5_linear_150_198)"/>
<path d="M106.977 16.8503H106.456V24.4086H101.638V2.67847H106.977C108.995 2.67847 110.579 3.00427 111.73 3.65588C112.771 4.24224 113.59 5.07857 114.187 6.16444C114.784 7.25075 115.082 8.44507 115.082 9.74828C115.082 11.0515 114.778 12.2194 114.171 13.3158C113.563 14.4127 112.749 15.2654 111.73 15.8733C110.579 16.5249 108.995 16.8507 106.977 16.8507V16.8503ZM106.423 7.0766V12.4521H107.269C108.376 12.4521 109.179 12.2405 109.678 11.8169C110.177 11.3936 110.427 10.7041 110.427 9.74828C110.427 8.79247 110.177 8.13557 109.678 7.7119C109.179 7.28822 108.376 7.0766 107.269 7.0766H106.423Z" fill="white"/>
<path d="M130.871 9.97642V24.4092H126.216V23.6924C125.066 24.5393 123.861 24.963 122.603 24.963C120.584 24.963 118.864 24.2029 117.443 22.6823C116.021 21.1622 115.311 19.3269 115.311 17.1763C115.311 15.0257 116.021 13.1965 117.443 11.6866C118.864 10.177 120.584 9.42224 122.603 9.42224C123.861 9.42224 125.066 9.84548 126.216 10.6928V9.97598H130.871V9.97642ZM123.221 13.5929C122.245 13.5929 121.458 13.9187 120.861 14.5703C120.264 15.2219 119.966 16.0798 119.966 17.1441C119.966 18.2084 120.259 19.11 120.845 19.7832C121.431 20.4568 122.201 20.7932 123.156 20.7932C124.112 20.7932 124.844 20.4625 125.419 19.7995C125.994 19.1373 126.281 18.263 126.281 17.1767C126.281 16.0904 125.994 15.2492 125.419 14.5866C124.844 13.9244 124.111 13.5929 123.222 13.5929H123.221Z" fill="white"/>
<path d="M133.67 32.0001L137.414 23.627L131.945 9.97632H136.828L139.953 17.9583L143.534 9.97632H148.417L138.553 32.0001H133.67Z" fill="white"/>
<defs>
<linearGradient id="paint0_linear_150_198" x1="6.75445" y1="11.0262" x2="6.75445" y2="26.9637" gradientUnits="userSpaceOnUse">
<stop stop-color="#06F88A"/>
<stop offset="1" stop-color="#06F88A" stop-opacity="0"/>
</linearGradient>
<linearGradient id="paint1_linear_150_198" x1="15.8516" y1="6.76032" x2="0.390299" y2="6.76032" gradientUnits="userSpaceOnUse">
<stop stop-color="#06F88A"/>
<stop offset="1" stop-color="#06F88A" stop-opacity="0"/>
</linearGradient>
<linearGradient id="paint2_linear_150_198" x1="20.2628" y1="16.0116" x2="20.2628" y2="0.0978732" gradientUnits="userSpaceOnUse">
<stop stop-color="#06F88A"/>
<stop offset="1" stop-color="#06F88A" stop-opacity="0"/>
</linearGradient>
<linearGradient id="paint3_linear_150_198" x1="11.1165" y1="20.281" x2="26.8324" y2="20.281" gradientUnits="userSpaceOnUse">
<stop stop-color="#06F88A"/>
<stop offset="1" stop-color="#06F88A" stop-opacity="0"/>
</linearGradient>
<linearGradient id="paint4_linear_150_198" x1="89.5545" y1="2.48283" x2="89.5545" y2="8.1401" gradientUnits="userSpaceOnUse">
<stop stop-color="#06F88A"/>
<stop offset="1" stop-color="#06F88A" stop-opacity="0"/>
</linearGradient>
<linearGradient id="paint5_linear_150_198" x1="38.6535" y1="10.0223" x2="38.6535" y2="17.4223" gradientUnits="userSpaceOnUse">
<stop stop-color="#06F88A"/>
<stop offset="1" stop-color="#06F88A" stop-opacity="0"/>
</linearGradient>
</defs>
</svg>
