<svg width="179" height="25" viewBox="0 0 179 25" fill="none" xmlns="http://www.w3.org/2000/svg">
<path fill-rule="evenodd" clip-rule="evenodd" d="M4.88297 7.04369L12.5952 7.0616C15.4306 7.08548 15.2157 12.3444 12.4579 12.2966L10.5478 12.3086C9.56285 12.41 9.52106 13.8128 10.5478 13.9262L17.1438 13.9143C22.7787 13.586 22.4504 -0.0537188 16.6006 0.041789C14.9949 0.041789 8.18995 0 7.96312 0C7.6169 0.0417847 7.40201 0.358151 7.40201 0.668552C7.40201 0.955075 7.67061 1.27144 7.94519 1.28338H12.3147C12.637 1.34307 12.6549 1.90419 12.249 1.90419H5.91564C5.01428 1.9221 5.02624 3.18757 5.89775 3.18757C5.95147 3.18757 11.5208 3.17564 11.5208 3.17564C11.8789 3.24727 11.7834 3.79046 11.473 3.77852H3.89209C3.05043 3.80837 3.07428 4.99626 3.8264 5.06192H11.0731C11.5864 5.04401 11.5446 5.79613 11.0253 5.74838C10.882 5.76032 4.82329 5.78419 4.82329 5.78419C4.1428 5.80807 4.04133 7.00192 4.86508 7.03176L4.88297 7.04369Z" fill="url(#paint0_linear_169_424)"/>
<path fill-rule="evenodd" clip-rule="evenodd" d="M7.04369 9.26409L7.06162 18.0449C7.14519 18.7492 7.76596 19.2745 8.45242 19.2805C9.19261 19.2805 9.67015 18.7433 9.7955 18.0389L9.80745 15.0662C9.90893 14.0813 11.3117 14.0395 11.4251 15.0662L11.4132 21.6622C10.1238 26.8495 -0.0537188 25.4945 0.041789 20.9937C0.041789 19.3879 0 12.583 0 12.3562C0.0417847 12.01 0.352182 11.7951 0.668552 11.7951C0.955075 11.7951 1.27146 12.0637 1.2834 12.3383V16.7077C1.34309 17.0301 1.90419 17.048 1.90419 16.6421V10.3087C1.9221 9.40736 3.18759 9.4193 3.18759 10.2908C3.18759 10.3445 3.17564 15.9138 3.17564 15.9138C3.24727 16.272 3.79048 16.1765 3.77854 15.8661V8.28515C3.80838 7.44349 4.99624 7.46735 5.0619 8.21948V15.4661C5.04399 15.9795 5.79016 15.9377 5.74838 15.4184C5.76032 15.2751 5.78419 9.21635 5.78419 9.21635C5.80807 8.53586 7.0019 8.43437 7.03174 9.26409H7.04369Z" fill="url(#paint1_linear_169_424)"/>
<path d="M51.5016 3.14895H47.6784V10.6323H38.165V3.14895H34.3418V22.5464H38.165V14.248H47.6784V22.5464H51.5016V3.14895ZM71.9363 22.5464L64.9864 3.14895L59.7852 3.4305L52.9391 22.5316H56.94L58.3478 18.3971H66.5424L67.9501 22.5316H71.9511L71.9363 22.5464ZM62.4525 6.34974L65.3273 14.8111H59.5629L62.4673 6.34974H62.4525ZM90.3409 3.16378H86.5474L86.6807 16.8857L77.8637 3.16378H73.3292V22.5611H77.1524L76.9598 8.83924L85.7916 22.5611H90.3261V3.16378H90.3409ZM100.136 22.5611C106.33 22.5611 111.116 19.6123 111.116 12.8699C111.116 6.12746 106.33 3.17857 100.136 3.17857H93.5565V22.576H100.136V22.5611ZM97.35 6.76466H100.136C105.426 6.76466 107.278 9.44679 107.278 12.855C107.278 16.2633 105.426 18.9454 100.136 18.9454H97.35V6.76466V6.76466ZM123.697 17.2562H127.491C132.307 17.2562 137.004 15.7891 137.004 10.2618C137.004 4.73451 132.307 3.14895 127.491 3.14895H119.859V22.5464H123.683V17.2562H123.697ZM123.697 13.6552V6.76466H127.491C131.403 6.76466 133.181 8.03903 133.181 10.2618C133.181 12.4846 131.403 13.6552 127.491 13.6552H123.697V13.6552ZM151.334 16.6931C154.149 15.8484 156.224 13.9664 156.224 10.2618C156.224 4.70487 151.556 3.14895 146.71 3.14895H139.109V22.5464H142.902V17.2562H147.214L151.275 22.5464H156.061L151.334 16.6931V16.6931ZM142.917 13.6552V6.76466H146.71C150.652 6.76466 152.401 8.03903 152.401 10.2618C152.401 12.4846 150.652 13.6552 146.71 13.6552H142.917V13.6552ZM168.301 22.6649C174.347 22.6649 179 19.5975 179 12.8995C179 6.20158 174.362 3.10449 168.301 3.10449C162.24 3.10449 157.632 6.17194 157.632 12.8995C157.632 19.6271 162.27 22.6649 168.301 22.6649ZM168.301 6.73504C173.428 6.73504 175.147 9.49128 175.147 12.8995C175.147 16.3078 173.428 19.0344 168.301 19.0344C163.174 19.0344 161.455 16.3078 161.455 12.8995C161.455 9.49128 163.203 6.73504 168.301 6.73504V6.73504Z" fill="url(#paint2_linear_169_424)"/>
<defs>
<linearGradient id="paint0_linear_169_424" x1="12.2233" y1="0" x2="12.2233" y2="13.9262" gradientUnits="userSpaceOnUse">
<stop stop-color="#2450FF"/>
<stop offset="1" stop-color="#2198FF"/>
</linearGradient>
<linearGradient id="paint1_linear_169_424" x1="5.71256" y1="7.65454" x2="5.71256" y2="25.0001" gradientUnits="userSpaceOnUse">
<stop stop-color="#FF5CF0"/>
<stop offset="1" stop-color="#B603FC"/>
</linearGradient>
<linearGradient id="paint2_linear_169_424" x1="106.671" y1="3.10449" x2="106.671" y2="22.6649" gradientUnits="userSpaceOnUse">
<stop stop-color="#2450FF"/>
<stop offset="1" stop-color="#2198FF"/>
</linearGradient>
</defs>
</svg>
