<svg width="170" height="32" viewBox="0 0 170 32" fill="none" xmlns="http://www.w3.org/2000/svg">
<g clip-path="url(#clip0_40_778)">
<path d="M54.871 8.00293L48.3456 14.7901L54.7223 23.9973H50.809L46.0954 17.1155L44.7042 18.577V23.9973H41.3975V8.00293H44.6964V14.2419L50.6779 8.00293H54.871Z" fill="white"/>
<path d="M56.3364 8.00293H59.6373V14.4309H65.8986V8.00293H69.1995V23.9973H65.8889V17.4029H59.6275V23.9973H56.3364V8.00293Z" fill="white"/>
<path d="M83.4088 23.9973L82.0391 20.2804H75.5117L74.1225 23.9973H70.6533L76.8325 8.00293H80.7301L86.9073 23.9973H83.4088ZM76.5859 17.3065H80.9532L78.7676 11.4079L76.5859 17.3065Z" fill="white"/>
<path d="M91.3863 23.9973H88.0874V8.00293H90.8913L99.0291 18.4106V8.00293H102.33V23.9973H99.5261L91.3863 13.5991V23.9973Z" fill="white"/>
<path d="M115.283 23.9973H110.536V8.00293H114.506C116.144 8.00293 117.402 8.25123 118.278 8.74782C118.971 9.12942 119.546 9.68373 119.941 10.3529C120.345 11.0059 120.559 11.7516 120.562 12.512C120.562 13.5997 120.105 14.5746 119.192 15.4367C120.614 16.3631 121.325 17.6342 121.327 19.25C121.335 20.0708 121.102 20.877 120.656 21.5754C120.193 22.2936 119.543 22.8807 118.769 23.2769C117.917 23.7572 116.755 23.9973 115.283 23.9973ZM113.77 10.8085V14.5009H114.787C115.598 14.5009 116.176 14.4133 116.523 14.2381C117.136 13.9015 117.443 13.3659 117.443 12.6311C117.443 11.8963 117.207 11.4129 116.734 11.181C116.262 10.9289 115.61 10.8029 114.778 10.8029L113.77 10.8085ZM113.77 17.1382V21.1198H115.159C117.128 21.1198 118.112 20.4562 118.112 19.129C118.127 18.756 118.032 18.3864 117.84 18.0627C117.652 17.7796 117.373 17.5643 117.045 17.4502C116.725 17.3298 116.392 17.2455 116.051 17.1987C115.681 17.1555 115.309 17.1353 114.936 17.1382H113.77Z" fill="white"/>
<path d="M134.726 23.9973L133.357 20.2804H126.835L125.446 23.9973H121.971L128.146 8.00293H132.044L138.223 23.9973H134.726ZM127.903 17.3065H132.271L130.087 11.4079L127.903 17.3065Z" fill="white"/>
<path d="M143.04 23.9973H139.739V8.00293H142.543L150.683 18.4106V8.00293H153.984V23.9973H151.18L143.04 13.5991V23.9973Z" fill="white"/>
<path d="M169.778 8.00293L163.251 14.7901L169.63 23.9973H165.716L161.001 17.1155L159.611 18.577V23.9973H156.303V8.00293H159.604V14.2419L165.583 8.00293H169.778Z" fill="white"/>
<path d="M20.7668 0.180027C22.59 -0.182479 24.4801 0.00447095 26.1975 0.71616C27.9148 1.42786 29.3825 2.63302 30.4153 4.17905C31.4479 5.72499 31.9999 7.54239 32.0002 9.40171C32.0006 10.6349 31.7568 11.8564 31.2844 12.9955C30.812 14.1345 30.1202 15.1696 29.2473 16.0404C30.9696 17.8118 31.9254 20.1904 31.9084 22.6615C31.8913 25.1327 30.9023 27.4979 29.1555 29.2455C27.4086 30.993 25.044 31.9823 22.5735 31.9994C20.1031 32.0164 17.7252 31.0604 15.9543 29.3373C14.1834 31.0604 11.8056 32.0164 9.33518 31.9994C6.86469 31.9823 4.5001 30.993 2.75315 29.2455C1.00631 27.4979 0.017318 25.1327 0.000223236 22.6615C-0.0167877 20.1904 0.938993 17.8118 2.66136 16.0404C0.986531 14.2598 0.0710085 11.8961 0.108622 9.45151C0.146282 7.00691 1.13467 4.67287 2.8635 2.94468C4.59226 1.2167 6.92576 0.229702 9.36936 0.193699C11.8097 0.157861 14.1685 1.07335 15.9465 2.74546C14.7918 2.7461 13.6372 2.89634 12.5119 3.19663L15.9533 6.63901L19.3957 3.19663C18.2705 2.89636 17.1159 2.74608 15.9612 2.74546C17.2748 1.43477 18.9469 0.541913 20.7668 0.180027ZM12.5119 28.8841C14.7664 29.4859 17.1393 29.4858 19.3938 28.8841L15.9533 25.4417L12.5119 28.8841ZM18.9621 10.1097C19.4117 10.6894 19.6892 11.3838 19.7639 12.1136C19.8385 12.8436 19.707 13.5798 19.384 14.2386C19.0611 14.8973 18.5602 15.4523 17.9377 15.8402C17.3152 16.228 16.5959 16.4335 15.8625 16.433C15.053 16.4353 14.2757 16.7519 13.6946 17.3158C13.1135 17.8796 12.7733 18.647 12.7463 19.4564C12.7194 20.2654 13.0072 21.0534 13.5491 21.6546C14.0913 22.256 14.846 22.6237 15.6535 22.68H15.9533C17.4469 22.6798 18.897 22.1767 20.0696 21.2513C21.2422 20.3257 22.0696 19.0317 22.4172 17.5785C22.7649 16.1252 22.6124 14.5969 21.9856 13.2406C21.3588 11.8843 20.2939 10.7785 18.9621 10.1019V10.1097ZM15.9533 9.40171C15.7865 9.40171 15.6213 9.40791 15.4582 9.41928H15.4416C14.0253 9.52935 12.6811 10.0903 11.6067 11.0199C10.5322 11.9496 9.78289 13.1991 9.46995 14.5853C9.15709 15.9714 9.29667 17.4217 9.86741 18.723C10.4383 20.0244 11.4111 21.1095 12.6428 21.8177C12.231 21.2323 11.9871 20.5445 11.9377 19.8304C11.8884 19.1164 12.0353 18.4024 12.3625 17.766C12.6899 17.1294 13.1857 16.5952 13.7951 16.2201C14.4046 15.845 15.105 15.6433 15.8205 15.638H15.8928C16.683 15.608 17.4326 15.2798 17.9905 14.7191C18.5484 14.1582 18.8727 13.4064 18.8987 12.6156C18.9246 11.8248 18.65 11.0537 18.1301 10.4574C17.6102 9.86111 16.8836 9.48344 16.0969 9.40171H15.9533ZM15.6985 18.7416C15.861 18.7092 16.0297 18.726 16.1828 18.7894C16.3358 18.8528 16.4667 18.9603 16.5588 19.098C16.6508 19.2358 16.7004 19.3981 16.7004 19.5638C16.7004 19.7861 16.6115 19.9994 16.4543 20.1566C16.2973 20.3137 16.0846 20.4026 15.8625 20.4027C15.6968 20.4027 15.5345 20.3532 15.3967 20.2611C15.259 20.169 15.1516 20.0382 15.0881 19.8851C15.0247 19.732 15.008 19.5633 15.0403 19.4007C15.0726 19.2381 15.1526 19.0883 15.2698 18.971C15.3869 18.854 15.5361 18.7739 15.6985 18.7416ZM3.11741 12.5999C2.51591 14.8547 2.5159 17.228 3.11741 19.4828L6.55393 16.0404L3.11741 12.5999ZM25.3528 16.0404L28.7942 19.4808C29.0953 18.3589 29.246 17.202 29.2444 16.0404C29.2461 14.8781 29.0954 13.7205 28.7942 12.598L25.3528 16.0404ZM15.7014 11.6996C15.8635 11.6674 16.0321 11.684 16.1848 11.7474C16.3374 11.8108 16.4681 11.9186 16.5598 12.056C16.6513 12.1933 16.7004 12.3548 16.7004 12.5199C16.6974 12.7402 16.6072 12.9511 16.4504 13.1058C16.2937 13.2603 16.0826 13.3469 15.8625 13.347V13.3568C15.6972 13.3564 15.5349 13.3063 15.3977 13.2142C15.2608 13.1221 15.154 12.9918 15.091 12.8392C15.0281 12.6864 15.0117 12.5179 15.0442 12.3558C15.0766 12.1937 15.1567 12.0448 15.2737 11.9281C15.3906 11.8114 15.5394 11.7317 15.7014 11.6996ZM15.9543 2.75229C15.9518 2.74993 15.949 2.74782 15.9465 2.74546C15.9514 2.74545 15.9563 2.74545 15.9612 2.74546C15.9589 2.74773 15.9566 2.75002 15.9543 2.75229Z" fill="white"/>
</g>
<defs>
<clipPath id="clip0_40_778">
<rect width="169.778" height="32" fill="white"/>
</clipPath>
</defs>
</svg>
