<svg width="164" height="32" viewBox="0 0 164 32" fill="none" xmlns="http://www.w3.org/2000/svg">
<path d="M4.43969 5.80346C6.38255 4.63203 11.2397 2.31774 13.0111 4.8606C14.2683 6.68917 12.8968 9.77489 13.4683 11.832C13.6111 13.2606 14.1825 15.832 13.154 16.8606C10.6968 19.3177 5.7254 15.8606 4.03969 13.6606C3.03969 12.3749 1.26826 8.00346 2.3254 6.97489C2.69683 6.60346 3.21112 6.40346 3.66826 6.20346C3.95397 6.08917 4.21112 5.94632 4.43969 5.80346Z" fill="#9A9696"/>
<path d="M27.3539 5.80346C25.4111 4.63203 20.5539 2.31774 18.7825 4.8606C17.5253 6.68917 18.8968 9.77489 18.3253 11.832C18.1825 13.2606 17.6111 15.832 18.6396 16.8606C21.0968 19.3177 26.0682 15.8606 27.7539 13.6606C28.7539 12.3749 30.5253 8.00346 29.4682 6.97489C29.0968 6.60346 28.5825 6.40346 28.1253 6.20346C27.8396 6.08917 27.5825 5.94632 27.3539 5.80346Z" fill="#9A9696"/>
<path d="M11.6682 15.7462C11.1254 15.489 10.7825 15.6319 10.2111 15.7462C9.0111 15.9747 6.95395 15.5176 6.89681 15.6604C6.83967 15.8033 8.86824 16.2319 10.0111 16.5747C11.5254 17.0319 13.0397 17.4604 14.554 17.9176L15.3825 17.6604C15.2968 17.6033 15.2111 17.5747 15.1254 17.5176C13.9825 16.9176 12.8397 16.289 11.6682 15.7462Z" fill="white"/>
<path d="M14.5826 18.0604L10.0112 16.6889C9.63973 16.5746 9.12544 16.4604 8.6683 16.3175C7.21116 15.9461 6.92544 15.8318 6.83973 15.7175L6.81116 15.6604L6.83973 15.6032C6.89687 15.4604 7.0683 15.4889 7.78259 15.5461C8.4683 15.6318 9.52544 15.7461 10.2397 15.6032C10.3254 15.5746 10.3826 15.5746 10.4683 15.5461C10.9254 15.4604 11.2683 15.3746 11.754 15.6032C12.7826 16.0604 13.7826 16.6032 14.754 17.1461L15.7254 17.6604L14.5826 18.0604ZM7.58259 15.8032C7.89687 15.8889 8.32544 16.0032 8.69687 16.0889C9.18259 16.2032 9.6683 16.3461 10.0683 16.4604L14.5826 17.8032L15.0969 17.6318L14.6397 17.3746C13.6683 16.8604 12.6683 16.3175 11.6397 15.8604C11.2112 15.6604 10.9254 15.7461 10.4969 15.8318C10.4112 15.8604 10.354 15.8604 10.2683 15.8889C9.52544 16.0318 8.43973 15.9175 7.72544 15.8318C7.6683 15.8032 7.61116 15.8032 7.58259 15.8032Z" fill="white"/>
<path d="M23.0111 15.2034C22.4397 15.2319 21.5254 14.9748 20.8683 14.8605C20.2111 14.7462 19.3254 15.1748 19.0397 15.2891C18.7826 15.4034 15.354 17.6605 15.354 17.6605L16.0397 17.9176C16.0397 17.9176 24.8111 15.1462 24.6111 15.1176C24.4683 15.1176 23.6111 15.1748 23.0111 15.2034Z" fill="white"/>
<path d="M16.0682 18.0604L15.1254 17.689L15.3254 17.5461C15.6682 17.3176 18.7539 15.289 19.0111 15.1747L19.0968 15.1461C19.4397 15.0033 20.2682 14.6318 20.9254 14.7461C21.1254 14.7747 21.3539 14.8318 21.5825 14.889C22.0968 15.0033 22.6397 15.1176 23.0397 15.089C23.6968 15.0318 24.4968 15.0033 24.6968 15.0033H24.8111L24.8397 15.1176C24.8397 15.1461 24.8397 15.1747 24.6968 15.2604C24.2682 15.4604 22.6111 16.0033 16.1825 18.0604H16.0682ZM15.6397 17.6318L16.0682 17.8033C18.6968 16.9747 22.3539 15.8033 23.8682 15.289C23.5254 15.3176 23.1825 15.3176 23.0111 15.3461C22.5825 15.3747 22.0397 15.2604 21.4968 15.1176C21.2682 15.0604 21.0682 15.0318 20.8682 14.9747C20.2968 14.8604 19.5254 15.2033 19.1825 15.3747L19.0968 15.4033C18.9254 15.489 17.0111 16.7176 15.6397 17.6318Z" fill="white"/>
<path d="M24.6397 15.1178L16.2968 17.8035C16.1254 17.6035 15.7825 17.6321 15.3825 17.6321H15.0682C14.6397 17.6321 14.2968 17.6035 14.1254 17.8321L6.89681 15.6321C6.72538 15.5749 6.55396 15.7178 6.55396 15.8892V26.3178C6.55396 26.4321 6.63967 26.5463 6.75395 26.5749L14.5825 28.3749H14.6111C14.6111 28.7178 15.0682 28.6606 15.6111 28.6606H15.9254C16.4682 28.6606 16.954 28.6606 16.9254 28.3463C16.9254 28.4035 16.9254 28.4321 16.9254 28.4321L24.4397 25.8606C24.554 25.8321 24.6111 25.7463 24.6111 25.6321L24.954 15.3749C24.9825 15.2035 24.8111 15.0606 24.6397 15.1178Z" fill="#67B52C"/>
<path d="M17.354 20.7747C16.154 18.7176 17.7254 16.2033 18.754 14.489C19.8111 12.689 21.1254 10.1461 20.8111 8.11757C20.6397 6.86042 20.2111 5.60328 18.8968 4.91757C17.0397 3.94614 13.2397 4.06042 11.3254 5.77471C9.58255 7.34614 10.5254 10.689 11.0111 12.3461C11.5254 14.1461 13.1254 16.1747 13.6111 17.9747C13.8968 19.0604 15.754 24.8604 17.6111 22.4319C18.0397 21.889 17.8111 21.4033 17.4683 20.9176C17.4111 20.889 17.3826 20.8319 17.354 20.7747Z" fill="#CDC5C2"/>
<path d="M12.6968 11.9175C12.2111 11.9175 12.2111 12.6603 12.6968 12.6603C13.1825 12.6318 13.1825 11.9175 12.6968 11.9175Z" fill="#1A1718"/>
<path d="M18.3826 11.8032C17.8969 11.8032 17.8969 12.5461 18.3826 12.5461C18.8397 12.5175 18.8397 11.8032 18.3826 11.8032Z" fill="#1A1718"/>
<path d="M42.016 25V7.864H46.096V21.664H52.888V25H42.016ZM61.1738 11.584C62.4218 11.584 63.4938 11.816 64.3898 12.28C65.3018 12.728 65.9978 13.4 66.4778 14.296C66.9738 15.176 67.2218 16.272 67.2218 17.584V19.456H58.8938C58.9258 20.32 59.2058 21.008 59.7338 21.52C60.2618 22.032 61.0138 22.288 61.9898 22.288C62.8378 22.288 63.6058 22.208 64.2938 22.048C64.9818 21.888 65.6938 21.632 66.4298 21.28V24.28C65.7898 24.616 65.1018 24.856 64.3658 25C63.6298 25.16 62.7258 25.24 61.6538 25.24C60.3258 25.24 59.1418 25 58.1018 24.52C57.0778 24.04 56.2698 23.304 55.6778 22.312C55.1018 21.304 54.8138 20.032 54.8138 18.496C54.8138 16.928 55.0778 15.64 55.6058 14.632C56.1338 13.608 56.8778 12.848 57.8378 12.352C58.7978 11.84 59.9098 11.584 61.1738 11.584ZM61.2458 14.392C60.6218 14.392 60.1018 14.592 59.6858 14.992C59.2858 15.376 59.0458 15.992 58.9658 16.84H63.5018C63.5018 16.376 63.4138 15.96 63.2378 15.592C63.0778 15.224 62.8298 14.936 62.4938 14.728C62.1578 14.504 61.7418 14.392 61.2458 14.392ZM75.9228 22.024C76.3388 22.024 76.7228 21.984 77.0748 21.904C77.4268 21.824 77.7868 21.72 78.1548 21.592V24.568C77.7228 24.76 77.2268 24.92 76.6668 25.048C76.1068 25.176 75.4428 25.24 74.6748 25.24C73.8588 25.24 73.1308 25.112 72.4908 24.856C71.8668 24.584 71.3708 24.128 71.0028 23.488C70.6508 22.832 70.4748 21.928 70.4748 20.776V14.848H68.7948V13.168L70.8108 11.872L71.9148 9.088H74.5068V11.824H78.0108V14.848H74.5068V20.632C74.5068 21.096 74.6348 21.448 74.8908 21.688C75.1468 21.912 75.4908 22.024 75.9228 22.024ZM84.7024 8.128C84.5584 8.704 84.3744 9.352 84.1504 10.072C83.9264 10.792 83.6864 11.512 83.4304 12.232C83.1744 12.952 82.9104 13.608 82.6384 14.2H79.7584C79.8704 13.688 79.9824 13.16 80.0944 12.616C80.2064 12.056 80.3104 11.496 80.4064 10.936C80.5184 10.376 80.6144 9.84 80.6944 9.328C80.7904 8.8 80.8624 8.312 80.9104 7.864H84.5344L84.7024 8.128ZM95.458 21.016C95.458 21.88 95.258 22.632 94.858 23.272C94.474 23.896 93.866 24.384 93.034 24.736C92.202 25.072 91.146 25.24 89.866 25.24C88.938 25.24 88.122 25.184 87.418 25.072C86.73 24.96 86.034 24.76 85.33 24.472V21.208C86.098 21.544 86.898 21.808 87.73 22C88.578 22.192 89.282 22.288 89.842 22.288C90.45 22.288 90.89 22.208 91.162 22.048C91.434 21.888 91.57 21.664 91.57 21.376C91.57 21.168 91.498 20.984 91.354 20.824C91.226 20.664 90.954 20.48 90.538 20.272C90.138 20.064 89.538 19.8 88.738 19.48C87.954 19.144 87.306 18.8 86.794 18.448C86.298 18.096 85.922 17.672 85.666 17.176C85.426 16.68 85.306 16.072 85.306 15.352C85.306 14.104 85.786 13.168 86.746 12.544C87.722 11.904 89.01 11.584 90.61 11.584C91.458 11.584 92.258 11.672 93.01 11.848C93.762 12.024 94.538 12.296 95.338 12.664L94.186 15.4C93.754 15.208 93.322 15.04 92.89 14.896C92.474 14.752 92.074 14.64 91.69 14.56C91.306 14.48 90.946 14.44 90.61 14.44C90.162 14.44 89.818 14.504 89.578 14.632C89.338 14.744 89.218 14.92 89.218 15.16C89.218 15.336 89.282 15.504 89.41 15.664C89.554 15.808 89.818 15.968 90.202 16.144C90.602 16.32 91.178 16.568 91.93 16.888C92.682 17.192 93.322 17.512 93.85 17.848C94.378 18.184 94.778 18.6 95.05 19.096C95.322 19.592 95.458 20.232 95.458 21.016ZM109.921 7.864C111.473 7.864 112.753 8.056 113.761 8.44C114.785 8.808 115.553 9.376 116.065 10.144C116.577 10.896 116.833 11.84 116.833 12.976C116.833 13.712 116.697 14.368 116.425 14.944C116.153 15.52 115.785 16.024 115.321 16.456C114.873 16.888 114.353 17.248 113.761 17.536L118.777 25H114.193L110.329 18.568H108.721V25H104.641V7.864H109.921ZM109.753 11.08H108.721V15.376H109.753C110.409 15.376 110.953 15.304 111.385 15.16C111.817 15 112.137 14.752 112.345 14.416C112.569 14.064 112.681 13.632 112.681 13.12C112.681 12.656 112.577 12.28 112.369 11.992C112.161 11.688 111.841 11.464 111.409 11.32C110.977 11.16 110.425 11.08 109.753 11.08ZM126.072 11.584C127.32 11.584 128.392 11.816 129.288 12.28C130.2 12.728 130.896 13.4 131.376 14.296C131.872 15.176 132.12 16.272 132.12 17.584V19.456H123.792C123.824 20.32 124.104 21.008 124.632 21.52C125.16 22.032 125.912 22.288 126.888 22.288C127.736 22.288 128.504 22.208 129.192 22.048C129.88 21.888 130.592 21.632 131.328 21.28V24.28C130.688 24.616 130 24.856 129.264 25C128.528 25.16 127.624 25.24 126.552 25.24C125.224 25.24 124.04 25 123 24.52C121.976 24.04 121.168 23.304 120.576 22.312C120 21.304 119.712 20.032 119.712 18.496C119.712 16.928 119.976 15.64 120.504 14.632C121.032 13.608 121.776 12.848 122.736 12.352C123.696 11.84 124.808 11.584 126.072 11.584ZM126.144 14.392C125.52 14.392 125 14.592 124.584 14.992C124.184 15.376 123.944 15.992 123.864 16.84H128.4C128.4 16.376 128.312 15.96 128.136 15.592C127.976 15.224 127.728 14.936 127.392 14.728C127.056 14.504 126.64 14.392 126.144 14.392ZM140.749 11.56C142.461 11.56 143.789 11.96 144.733 12.76C145.677 13.544 146.149 14.712 146.149 16.264V25H143.341L142.549 23.224H142.453C142.085 23.688 141.701 24.072 141.301 24.376C140.917 24.68 140.469 24.896 139.957 25.024C139.461 25.168 138.845 25.24 138.109 25.24C137.341 25.24 136.645 25.088 136.021 24.784C135.413 24.48 134.933 24.016 134.581 23.392C134.229 22.768 134.053 21.976 134.053 21.016C134.053 19.608 134.541 18.568 135.517 17.896C136.509 17.224 137.957 16.848 139.861 16.768L142.117 16.696V16.312C142.117 15.672 141.949 15.208 141.613 14.92C141.293 14.632 140.845 14.488 140.269 14.488C139.693 14.488 139.093 14.584 138.469 14.776C137.845 14.952 137.213 15.176 136.573 15.448L135.349 12.76C136.069 12.376 136.885 12.08 137.797 11.872C138.709 11.664 139.693 11.56 140.749 11.56ZM140.893 19.048C139.885 19.08 139.181 19.264 138.781 19.6C138.381 19.92 138.181 20.36 138.181 20.92C138.181 21.416 138.325 21.776 138.613 22C138.901 22.224 139.269 22.336 139.717 22.336C140.389 22.336 140.957 22.136 141.421 21.736C141.885 21.32 142.117 20.76 142.117 20.056V19L140.893 19.048ZM153.716 25.24C152.308 25.24 151.148 24.664 150.236 23.512C149.34 22.36 148.892 20.664 148.892 18.424C148.892 16.168 149.348 14.464 150.26 13.312C151.172 12.16 152.364 11.584 153.836 11.584C154.444 11.584 154.98 11.672 155.444 11.848C155.908 12.008 156.3 12.232 156.62 12.52C156.956 12.808 157.244 13.136 157.484 13.504H157.58C157.532 13.216 157.476 12.808 157.412 12.28C157.364 11.736 157.34 11.2 157.34 10.672V6.76H161.396V25H158.324L157.508 23.296H157.34C157.132 23.648 156.86 23.976 156.524 24.28C156.188 24.568 155.788 24.8 155.324 24.976C154.876 25.152 154.34 25.24 153.716 25.24ZM155.252 22.024C156.132 22.024 156.748 21.76 157.1 21.232C157.452 20.704 157.636 19.904 157.652 18.832V18.472C157.652 17.304 157.476 16.408 157.124 15.784C156.788 15.16 156.148 14.848 155.204 14.848C154.532 14.848 153.988 15.152 153.572 15.76C153.172 16.368 152.972 17.28 152.972 18.496C152.972 19.696 153.172 20.584 153.572 21.16C153.988 21.736 154.548 22.024 155.252 22.024Z" fill="black"/>
</svg>
